<?xml version="1.0" encoding="UTF-8"?>
<svg version="1.1" xmlns="http://www.w3.org/2000/svg" width="32" height="32">
<path d="M0 0 C1.32 0 2.64 0 4 0 C4 10.56 4 21.12 4 32 C2.68 32 1.36 32 0 32 C-1.39886325 29.2022735 -1.12974597 26.87611108 -1.1328125 23.75 C-1.13410156 22.5021875 -1.13539062 21.254375 -1.13671875 19.96875 C-1.13285156 18.6590625 -1.12898438 17.349375 -1.125 16 C-1.12886719 14.6903125 -1.13273437 13.380625 -1.13671875 12.03125 C-1.13542969 10.7834375 -1.13414063 9.535625 -1.1328125 8.25 C-1.13168457 7.10015625 -1.13055664 5.9503125 -1.12939453 4.765625 C-1 2 -1 2 0 0 Z " fill="#6B6CF6" transform="translate(21,0)"/>
<path d="M0 0 C1.32 0 2.64 0 4 0 C5.08965903 3.26897708 5.1292947 5.6897525 5.1328125 9.12890625 C5.13410156 10.32837891 5.13539062 11.52785156 5.13671875 12.76367188 C5.13285156 14.01728516 5.12898437 15.27089844 5.125 16.5625 C5.12886719 17.81998047 5.13273438 19.07746094 5.13671875 20.37304688 C5.13542969 21.57123047 5.13414063 22.76941406 5.1328125 24.00390625 C5.13168457 25.10549072 5.13055664 26.2070752 5.12939453 27.34204102 C5 30 5 30 4 32 C2.68 32 1.36 32 0 32 C0 21.44 0 10.88 0 0 Z " fill="#6B6BF5" transform="translate(7,0)"/>
<path d="M0 0 C3 1 3 1 4 3 C4.1230891 5.31006744 4.1755634 7.62418636 4.1875 9.9375 C4.20167969 11.18402344 4.21585938 12.43054688 4.23046875 13.71484375 C4 17 4 17 2 20 C1.01 19.67 0.02 19.34 -1 19 C-2.47793555 16.04412889 -2.17053651 13.35002355 -2.1875 10.0625 C-2.20167969 8.81597656 -2.21585938 7.56945312 -2.23046875 6.28515625 C-2 3 -2 3 0 0 Z " fill="#8080F7" transform="translate(15,6)"/>
<path d="M0 0 C0.99 0.33 1.98 0.66 3 1 C3 6.94 3 12.88 3 19 C1.68 19.33 0.36 19.66 -1 20 C-1.02888514 16.85418577 -1.04675923 13.70840531 -1.0625 10.5625 C-1.07087891 9.66466797 -1.07925781 8.76683594 -1.08789062 7.84179688 C-1.09111328 6.98779297 -1.09433594 6.13378906 -1.09765625 5.25390625 C-1.10551147 4.06776733 -1.10551147 4.06776733 -1.11352539 2.85766602 C-1 1 -1 1 0 0 Z " fill="#4E4FF4" transform="translate(1,6)"/>
<path d="M0 0 C0.99 0.33 1.98 0.66 3 1 C3 6.94 3 12.88 3 19 C1.68 19 0.36 19 -1 19 C-1.02683987 16.02077407 -1.04676037 13.04178705 -1.0625 10.0625 C-1.07087891 9.21236328 -1.07925781 8.36222656 -1.08789062 7.48632812 C-1.09111328 6.67744141 -1.09433594 5.86855469 -1.09765625 5.03515625 C-1.10289307 4.2862915 -1.10812988 3.53742676 -1.11352539 2.76586914 C-1 1 -1 1 0 0 Z " fill="#4F4FF4" transform="translate(29,6)"/>
</svg>
