<?xml version="1.0" encoding="UTF-8"?>
<!DOCTYPE svg PUBLIC "-//W3C//DTD SVG 1.1//EN" "http://www.w3.org/Graphics/SVG/1.1/DTD/svg11.dtd">
<!-- Creator: CorelDRAW -->
<svg xmlns="http://www.w3.org/2000/svg" xml:space="preserve" width="1.70666in" height="1.70666in" version="1.1" style="shape-rendering:geometricPrecision; text-rendering:geometricPrecision; image-rendering:optimizeQuality; fill-rule:evenodd; clip-rule:evenodd"
viewBox="0 0 1706.66 1706.66"
 xmlns:xlink="http://www.w3.org/1999/xlink"
 xmlns:xodm="http://www.corel.com/coreldraw/odm/2003">
 <defs>
  <style type="text/css">
   <![CDATA[
    .fil1 {fill:#000066}
    .fil2 {fill:#DADADA}
    .fil0 {fill:#FF6600}
   ]]>
  </style>
 </defs>
 <g id="Layer_x0020_1">
  <metadata id="CorelCorpID_0Corel-Layer"/>
  <path class="fil0" d="M1429.59 496.61c-11.04,0 -20,-8.96 -20,-20l0.01 -456.61c0,-26.32 40,-26.32 40,0l-0.02 456.61c0.02,11.04 -8.95,20 -19.99,20z"/>
  <path class="fil0" d="M1433.12 274.42c-21.2,0 -27.81,-29.03 -8.53,-38.11l151.09 -71.01 -158.76 -129.82c-20.32,-16.61 5.01,-47.56 25.3,-30.96l183.33 149.9c11.36,9.29 9.16,27.34 -4.14,33.58 -22.72,10.66 -177.77,86.42 -188.3,86.42z"/>
  <path class="fil1" d="M1599.59 1706.66l-340.04 0c-11.04,0 -20,-8.97 -20,-20l0 -1210.05c0,-11.04 8.97,-20 20,-20l340.04 0c11.04,0 20,8.96 20,20l0 1210.05c0.02,11.04 -8.96,20 -20,20zm-320.04 -40l300.04 0 0 -1170.05 -300.04 0 0 1170.05z"/>
  <path class="fil1" d="M1259.56 1706.66l-340.04 0c-11.04,0 -20,-8.97 -20,-20l0 -847.12c0,-11.04 8.97,-20 20,-20l340.04 0c26.33,0 26.32,40 0,40l-320.04 0 0 807.11 320.04 -0c26.33,0 26.31,40.01 0,40.01z"/>
  <path class="fil1" d="M919.52 1706.66l-340.04 0c-11.04,0 -20,-8.97 -20,-20l0 -574.43c0,-11.04 8.96,-20 20,-20l340.04 0c26.33,0 26.32,40 0,40l-320.04 0 0 534.43 320.04 0c26.33,0 26.33,40 0,40z"/>
  <path class="fil1" d="M579.48 1706.66l-340.05 0c-11.04,0 -20,-8.97 -20,-20l0 -315.63c0,-11.04 8.96,-20 20,-20l340.04 0c26.32,0 26.32,40 0,40l-320.04 0 0 275.61 320.04 0c26.33,0 26.32,40.01 0.01,40.01z"/>
  <path class="fil0" d="M93.72 949.87c-24.72,0 -27.1,-36.92 -2.33,-39.86 3.94,-0.47 402.44,-55.63 1105.88,-736.35 18.91,-18.33 46.74,10.42 27.8,28.73 -714.91,691.57 -1115.14,747.48 -1131.35,747.48z"/>
  <path class="fil0" d="M1108.2 601.36c-13.11,0 -22.81,-12.5 -19.31,-25.29l98.9 -360.9 -360.9 98.9c-25.35,7 -35.98,-31.61 -10.57,-38.57l394.73 -108.18c14.85,-4.06 28.65,9.73 24.57,24.57l-108.18 394.75c-2.41,8.88 -10.48,14.71 -19.26,14.71z"/>
  <polygon class="fil2" points="1279.56,496.61 1279.56,1666.66 1385.09,1666.66 1385.09,496.61 "/>
  <polygon class="fil2" points="939.52,859.54 939.52,1666.65 1055.77,1666.65 1055.77,859.54 "/>
  <polygon class="fil2" points="599.48,1132.24 599.48,1666.66 726.14,1666.66 726.14,1132.24 "/>
  <polygon class="fil2" points="418.92,1391.04 259.43,1391.04 259.43,1666.65 418.92,1666.65 "/>
 </g>
</svg>
